<?xml version="1.0" encoding="UTF-8" standalone="no"?>
<!-- Created with Inkscape (http://www.inkscape.org/) -->

<svg
   xmlns:dc="http://purl.org/dc/elements/1.1/"
   xmlns:cc="http://creativecommons.org/ns#"
   xmlns:rdf="http://www.w3.org/1999/02/22-rdf-syntax-ns#"
   xmlns:svg="http://www.w3.org/2000/svg"
   xmlns="http://www.w3.org/2000/svg"
   xmlns:sodipodi="http://sodipodi.sourceforge.net/DTD/sodipodi-0.dtd"
   xmlns:inkscape="http://www.inkscape.org/namespaces/inkscape"
   width="1252.2244"
   height="1297.5681"
   id="svg3552"
   version="1.1"
   inkscape:version="0.48.4 r9939"
   sodipodi:docname="gibbon_genome_feature_shifts.svg">
  <defs
     id="defs3554">
    <clipPath
       id="clipPath3609"
       clipPathUnits="userSpaceOnUse">
      <path
         id="path3611"
         d="M 0,0 504,0 504,504 0,504 0,0 z"
         inkscape:connector-curvature="0" />
    </clipPath>
    <clipPath
       id="clipPath3595"
       clipPathUnits="userSpaceOnUse">
      <path
         id="path3597"
         d="m 61.65,44.46 427.95,0 0,422.14 -427.95,0 0,-422.14 z"
         inkscape:connector-curvature="0" />
    </clipPath>
    <clipPath
       id="clipPath3795"
       clipPathUnits="userSpaceOnUse">
      <path
         id="path3797"
         d="M 0,0 504,0 504,504 0,504 0,0 z"
         inkscape:connector-curvature="0" />
    </clipPath>
    <clipPath
       id="clipPath3781"
       clipPathUnits="userSpaceOnUse">
      <path
         id="path3783"
         d="m 53.87,44.46 435.73,0 0,422.14 -435.73,0 0,-422.14 z"
         inkscape:connector-curvature="0" />
    </clipPath>
    <clipPath
       id="clipPath3954"
       clipPathUnits="userSpaceOnUse">
      <path
         id="path3956"
         d="M 0,0 504,0 504,504 0,504 0,0 z"
         inkscape:connector-curvature="0" />
    </clipPath>
    <clipPath
       id="clipPath3940"
       clipPathUnits="userSpaceOnUse">
      <path
         id="path3942"
         d="m 61.65,44.46 427.95,0 0,422.14 -427.95,0 0,-422.14 z"
         inkscape:connector-curvature="0" />
    </clipPath>
    <clipPath
       id="clipPath4131"
       clipPathUnits="userSpaceOnUse">
      <path
         id="path4133"
         d="M 0,0 504,0 504,504 0,504 0,0 z"
         inkscape:connector-curvature="0" />
    </clipPath>
    <clipPath
       id="clipPath4115"
       clipPathUnits="userSpaceOnUse">
      <path
         id="path4117"
         d="m 53.87,44.46 435.73,0 0,422.14 -435.73,0 0,-422.14 z"
         inkscape:connector-curvature="0" />
    </clipPath>
  </defs>
  <sodipodi:namedview
     id="base"
     pagecolor="#ffffff"
     bordercolor="#666666"
     borderopacity="1.0"
     inkscape:pageopacity="0.0"
     inkscape:pageshadow="2"
     inkscape:zoom="0.98994949"
     inkscape:cx="501.49624"
     inkscape:cy="195.62121"
     inkscape:document-units="px"
     inkscape:current-layer="layer1"
     showgrid="false"
     fit-margin-top="0"
     fit-margin-left="0"
     fit-margin-right="0"
     fit-margin-bottom="0"
     inkscape:window-width="1440"
     inkscape:window-height="799"
     inkscape:window-x="0"
     inkscape:window-y="0"
     inkscape:window-maximized="1" />
  <metadata
     id="metadata3557">
    <rdf:RDF>
      <cc:Work
         rdf:about="">
        <dc:format>image/svg+xml</dc:format>
        <dc:type
           rdf:resource="http://purl.org/dc/dcmitype/StillImage" />
        <dc:title></dc:title>
      </cc:Work>
    </rdf:RDF>
  </metadata>
  <g
     inkscape:label="Layer 1"
     inkscape:groupmode="layer"
     id="layer1"
     transform="translate(666.17367,-96.521193)">
    <g
       transform="matrix(1.25,0,0,-1.25,-679.14642,745.7723)"
       inkscape:label="AluRegionShifts"
       id="g3773">
      <g
         id="g3775" />
      <g
         id="g3777">
        <g
           clip-path="url(#clipPath3781)"
           id="g3779">
          <path
             id="path3785"
             style="fill:#ffffff;fill-opacity:1;fill-rule:nonzero;stroke:none"
             d="m 53.87,44.46 435.73,0 0,422.14 -435.73,0 0,-422.14 z"
             inkscape:connector-curvature="0" />
          <path
             id="path3787"
             style="fill:none;stroke:#000000;stroke-width:1.05999994;stroke-linecap:butt;stroke-linejoin:round;stroke-miterlimit:1;stroke-opacity:1;stroke-dasharray:none"
             d="m 73.68,160.39 5.01,0 5.01,-32.24 5.02,-10.75 5.01,-53.75 5.02,139.74 5.01,-53.75 5.02,-39.67 5.01,52.97 5.01,52.98 5.02,16.64 5.01,-147.26 5.02,52.6 5.01,42.07 5.01,-101.2 5.02,172.66 5.01,1.17 5.02,-24.3 5.01,19.9 5.02,-9.95 5.01,-116.48 5.01,29.45 5.02,58.9 5.01,9.82 5.02,0 5.01,40.31 5.01,-33.19 5.02,-28.87 5.01,0 5.02,96.25 5.01,-57.75 5.02,-84.2 5.01,105.53 5.01,-103.17 5.02,-18.76 5.01,132.2 5.02,-55.57 5.01,3.07 5.01,39.18 5.02,95.7 5.01,96.75 5.02,-123.39 5.01,-92.79 5.01,17.4 5.02,46.36 5.01,-9.5 5.02,28.5 5.01,115.19 5.02,-9.63 5.01,-28.87 5.01,10.45 5.02,-14.3 5.01,-88.36 5.02,-143.57 5.01,117.73 5.01,0 5.02,0 5.01,0 5.02,60.03 5.01,-52.36 5.02,41.78 5.01,-135.78 5.01,-12.77 5.02,105.94 5.01,10.6 5.02,21.19 5.01,-137.73 5.01,-42.38 5.02,142.57 5.01,-128.06 5.02,33.91 5.01,-24.52 5.02,42.17 5.01,163.18 5.01,-260.54 5.02,90.62 5.01,-67.97 5.02,67.97 5.01,4.57 5.01,0"
             inkscape:connector-curvature="0" />
          <path
             id="path3789"
             style="fill:none;stroke:#7f7f7f;stroke-width:1.05999994;stroke-linecap:round;stroke-linejoin:round;stroke-miterlimit:10;stroke-opacity:1;stroke-dasharray:none"
             d="m 53.87,44.46 435.73,0 0,422.14 -435.73,0 0,-422.14 z"
             inkscape:connector-curvature="0" />
        </g>
      </g>
      <g
         id="g3791">
        <text
           transform="scale(1,-1)"
           id="text3857"
           x="250.07001"
           y="-491.00003"
           style="font-size:38.40000153px;font-style:italic;font-variant:normal;font-weight:normal;font-stretch:normal;text-align:start;line-height:125%;writing-mode:lr-tb;text-anchor:start;font-family:Helvetica CY;-inkscape-font-specification:Helvetica CY Italic"
           sodipodi:linespacing="125%">
          <tspan
             style="font-size:38.40000153px;font-style:italic;font-variant:normal;font-weight:normal;font-stretch:normal;text-align:start;line-height:125%;writing-mode:lr-tb;text-anchor:start;fill:#000000;fill-opacity:1;fill-rule:nonzero;stroke:none;font-family:Helvetica CY;-inkscape-font-specification:Helvetica CY Italic"
             x="250.07001"
             sodipodi:role="line"
             id="tspan3859"
             y="-491.00003">Alu</tspan>
        </text>
        <text
           transform="scale(1,-1)"
           id="text3799"
           x="27.32"
           y="-185.46001">
          <tspan
             style="font-size:14px;font-variant:normal;font-weight:normal;writing-mode:lr-tb;fill:#000000;fill-opacity:1;fill-rule:nonzero;stroke:none;font-family:Helvetica CY;-inkscape-font-specification:Helvetica"
             x="27.32 35.104 38.995998"
             y="-185.46001"
             sodipodi:role="line"
             id="tspan3801">0.4</tspan>
        </text>
        <text
           transform="scale(1,-1)"
           id="text3803"
           x="27.32"
           y="-332.73001">
          <tspan
             style="font-size:14px;font-variant:normal;font-weight:normal;writing-mode:lr-tb;fill:#000000;fill-opacity:1;fill-rule:nonzero;stroke:none;font-family:Helvetica CY;-inkscape-font-specification:Helvetica"
             x="27.32 35.104 38.995998"
             y="-332.73001"
             sodipodi:role="line"
             id="tspan3805">0.5</tspan>
        </text>
        <path
           inkscape:connector-curvature="0"
           d="m 49.62,190.49 4.25,0"
           style="fill:none;stroke:#000000;stroke-width:1.05999994;stroke-linecap:butt;stroke-linejoin:round;stroke-miterlimit:10;stroke-opacity:1;stroke-dasharray:none"
           id="path3807" />
        <path
           inkscape:connector-curvature="0"
           d="m 49.62,337.75 4.25,0"
           style="fill:none;stroke:#000000;stroke-width:1.05999994;stroke-linecap:butt;stroke-linejoin:round;stroke-miterlimit:10;stroke-opacity:1;stroke-dasharray:none"
           id="path3809" />
        <path
           inkscape:connector-curvature="0"
           d="m 73.68,40.21 0,4.25"
           style="fill:none;stroke:#000000;stroke-width:1.05999994;stroke-linecap:butt;stroke-linejoin:round;stroke-miterlimit:10;stroke-opacity:1;stroke-dasharray:none"
           id="path3811" />
        <path
           inkscape:connector-curvature="0"
           d="m 173.96,40.21 0,4.25"
           style="fill:none;stroke:#000000;stroke-width:1.05999994;stroke-linecap:butt;stroke-linejoin:round;stroke-miterlimit:10;stroke-opacity:1;stroke-dasharray:none"
           id="path3813" />
        <path
           inkscape:connector-curvature="0"
           d="m 274.24,40.21 0,4.25"
           style="fill:none;stroke:#000000;stroke-width:1.05999994;stroke-linecap:butt;stroke-linejoin:round;stroke-miterlimit:10;stroke-opacity:1;stroke-dasharray:none"
           id="path3815" />
        <path
           inkscape:connector-curvature="0"
           d="m 374.53,40.21 0,4.25"
           style="fill:none;stroke:#000000;stroke-width:1.05999994;stroke-linecap:butt;stroke-linejoin:round;stroke-miterlimit:10;stroke-opacity:1;stroke-dasharray:none"
           id="path3817" />
        <path
           inkscape:connector-curvature="0"
           d="m 474.81,40.21 0,4.25"
           style="fill:none;stroke:#000000;stroke-width:1.05999994;stroke-linecap:butt;stroke-linejoin:round;stroke-miterlimit:10;stroke-opacity:1;stroke-dasharray:none"
           id="path3819" />
        <text
           transform="scale(1,-1)"
           id="text3821"
           x="49.93"
           y="-27.32">
          <tspan
             style="font-size:14px;font-variant:normal;font-weight:normal;writing-mode:lr-tb;fill:#000000;fill-opacity:1;fill-rule:nonzero;stroke:none;font-family:Helvetica CY;-inkscape-font-specification:Helvetica"
             x="49.93"
             y="-27.32"
             id="tspan3823">−</tspan>
        </text>
        <text
           transform="scale(1,-1)"
           id="text3825"
           x="58.105999"
           y="-27.32">
          <tspan
             style="font-size:14px;font-variant:normal;font-weight:normal;writing-mode:lr-tb;fill:#000000;fill-opacity:1;fill-rule:nonzero;stroke:none;font-family:Helvetica CY;-inkscape-font-specification:Helvetica"
             x="58.105999 65.889999 73.674004 81.849998 89.634003"
             y="-27.32"
             sodipodi:role="line"
             id="tspan3827">1e+06</tspan>
        </text>
        <text
           transform="scale(1,-1)"
           id="text3829"
           x="150.22"
           y="-27.32">
          <tspan
             style="font-size:14px;font-variant:normal;font-weight:normal;writing-mode:lr-tb;fill:#000000;fill-opacity:1;fill-rule:nonzero;stroke:none;font-family:Helvetica CY;-inkscape-font-specification:Helvetica"
             x="150.22"
             y="-27.32"
             id="tspan3831">−</tspan>
        </text>
        <text
           transform="scale(1,-1)"
           id="text3833"
           x="158.396"
           y="-27.32">
          <tspan
             style="font-size:14px;font-variant:normal;font-weight:normal;writing-mode:lr-tb;fill:#000000;fill-opacity:1;fill-rule:nonzero;stroke:none;font-family:Helvetica CY;-inkscape-font-specification:Helvetica"
             x="158.396 166.17999 173.964 182.14 189.924"
             y="-27.32"
             sodipodi:role="line"
             id="tspan3835">5e+05</tspan>
        </text>
        <text
           transform="scale(1,-1)"
           id="text3837"
           x="254.59"
           y="-27.32">
          <tspan
             style="font-size:14px;font-variant:normal;font-weight:normal;writing-mode:lr-tb;fill:#000000;fill-opacity:1;fill-rule:nonzero;stroke:none;font-family:Helvetica CY;-inkscape-font-specification:Helvetica"
             x="254.59 262.37399 270.15799 278.33398 286.11801"
             y="-27.32"
             sodipodi:role="line"
             id="tspan3839">0e+00</tspan>
        </text>
        <text
           transform="scale(1,-1)"
           id="text3841"
           x="354.87"
           y="-27.32">
          <tspan
             style="font-size:14px;font-variant:normal;font-weight:normal;writing-mode:lr-tb;fill:#000000;fill-opacity:1;fill-rule:nonzero;stroke:none;font-family:Helvetica CY;-inkscape-font-specification:Helvetica"
             x="354.87 362.65399 370.43799 378.61401 386.39801"
             y="-27.32"
             sodipodi:role="line"
             id="tspan3843">5e+05</tspan>
        </text>
        <text
           transform="scale(1,-1)"
           id="text3845"
           x="455.14999"
           y="-27.32">
          <tspan
             style="font-size:14px;font-variant:normal;font-weight:normal;writing-mode:lr-tb;fill:#000000;fill-opacity:1;fill-rule:nonzero;stroke:none;font-family:Helvetica CY;-inkscape-font-specification:Helvetica"
             x="455.14999 462.93399 470.71799 478.89401 486.67801"
             y="-27.32"
             sodipodi:role="line"
             id="tspan3847">1e+06</tspan>
        </text>
        <text
           transform="scale(1,-1)"
           id="text3849"
           x="253.73"
           y="-10.8">
          <tspan
             style="font-size:18px;font-variant:normal;font-weight:normal;writing-mode:lr-tb;fill:#000000;fill-opacity:1;fill-rule:nonzero;stroke:none;font-family:Helvetica CY;-inkscape-font-specification:Helvetica"
             x="253.73 265.73599 275.74399 279.73999 284.74399"
             y="-10.8"
             sodipodi:role="line"
             id="tspan3851">Shift</tspan>
        </text>
        <text
           transform="matrix(0,1,1,0,0,0)"
           id="text3853"
           x="219.61"
           y="23.719999">
          <tspan
             style="font-size:18px;font-variant:normal;font-weight:normal;writing-mode:lr-tb;fill:#000000;fill-opacity:1;fill-rule:nonzero;stroke:none;font-family:Helvetica CY;-inkscape-font-specification:Helvetica"
             x="219.61 233.614 242.164 252.172 258.436 262.43201 272.44 282.448"
             y="23.719999"
             sodipodi:role="line"
             id="tspan3855">Overlaps</tspan>
        </text>
      </g>
    </g>
    <g
       id="g3589"
       transform="matrix(1.25,0,0,-1.25,-31.99642,745.7723)" />
    <g
       id="g3591"
       transform="matrix(1.25,0,0,-1.25,-31.99642,745.7723)">
      <g
         id="g3593"
         clip-path="url(#clipPath3595)">
        <path
           inkscape:connector-curvature="0"
           d="m 61.65,44.46 427.95,0 0,422.14 -427.95,0 0,-422.14 z"
           style="fill:#ffffff;fill-opacity:1;fill-rule:nonzero;stroke:none"
           id="path3599" />
        <path
           inkscape:connector-curvature="0"
           d="m 81.11,191.47 4.92,0 4.93,-127.82 4.92,69.72 4.92,-58.1 4.93,46.48 4.92,-34.86 4.93,18.22 4.92,91.63 4.93,-68.72 4.92,99.72 4.93,-45.48 4.92,-22.75 4.93,79.6 4.92,-49.4 4.93,109.78 4.92,-28.97 4.92,-89.49 4.93,107.56 4.92,-86.05 4.93,-69.56 4.92,10.62 4.93,10.61 4.92,63.68 4.93,-42.46 4.92,-36.86 4.93,132.8 4.92,-52.03 4.92,-10.4 4.93,83.24 4.92,-41.62 4.93,-98.75 4.92,35.59 4.93,0 4.92,-60.84 4.93,155.6 4.92,-110.13 4.93,58.29 4.92,2.2 4.93,-5.51 4.92,220.41 4.92,-171.72 4.93,-83.65 4.92,-55.35 4.93,97.28 4.92,-30.82 4.93,71.9 4.92,48.33 4.93,62.43 4.92,-104.05 4.93,91.23 4.92,-80.82 4.92,-10.62 4.93,-124.72 4.92,124.51 4.93,-97.47 4.92,64.98 4.93,-64.98 4.92,93.66 4.93,25.93 4.92,-33.88 4.93,-90.32 4.92,-5.44 4.92,137.43 4.93,-91.62 4.92,103.08 4.93,-148.89 4.92,-34.36 4.93,118.1 4.92,-184.57 4.93,160.21 4.92,-76.69 4.93,30.34 4.92,125.72 4.93,-195.92 4.92,48.98 4.92,-61.23 4.93,85.72 4.92,28 4.93,-24.68"
           style="fill:none;stroke:#000000;stroke-width:1.05999994;stroke-linecap:butt;stroke-linejoin:round;stroke-miterlimit:1;stroke-opacity:1;stroke-dasharray:none"
           id="path3601" />
        <path
           inkscape:connector-curvature="0"
           d="m 61.65,44.46 427.95,0 0,422.14 -427.95,0 0,-422.14 z"
           style="fill:none;stroke:#7f7f7f;stroke-width:1.05999994;stroke-linecap:round;stroke-linejoin:round;stroke-miterlimit:10;stroke-opacity:1;stroke-dasharray:none"
           id="path3603" />
      </g>
    </g>
    <g
       id="g3605"
       transform="matrix(1.25,0,0,-1.3136693,-31.99642,746.43307)">
      <g
         id="g3607"
         clip-path="url(#clipPath3609)">
        <text
           transform="matrix(1,0,0,-1,27.32,74.89)"
           id="text3613">
          <tspan
             style="font-size:14px;font-variant:normal;font-weight:normal;writing-mode:lr-tb;fill:#000000;fill-opacity:1;fill-rule:nonzero;stroke:none;font-family:Helvetica CY;-inkscape-font-specification:Helvetica"
             x="0 7.7839999 11.676 19.459999"
             y="0"
             sodipodi:role="line"
             id="tspan3615">0.20</tspan>
        </text>
        <text
           transform="matrix(1,0,0,-1,27.32,154.49)"
           id="text3617">
          <tspan
             style="font-size:14px;font-variant:normal;font-weight:normal;writing-mode:lr-tb;fill:#000000;fill-opacity:1;fill-rule:nonzero;stroke:none;font-family:Helvetica CY;-inkscape-font-specification:Helvetica"
             x="0 7.7839999 11.676 19.459999"
             y="0"
             sodipodi:role="line"
             id="tspan3619">0.25</tspan>
        </text>
        <text
           transform="matrix(1,0,0,-1,27.32,234.08)"
           id="text3621">
          <tspan
             style="font-size:14px;font-variant:normal;font-weight:normal;writing-mode:lr-tb;fill:#000000;fill-opacity:1;fill-rule:nonzero;stroke:none;font-family:Helvetica CY;-inkscape-font-specification:Helvetica"
             x="0 7.7839999 11.676 19.459999"
             y="0"
             sodipodi:role="line"
             id="tspan3623">0.30</tspan>
        </text>
        <text
           transform="matrix(1,0,0,-1,27.32,313.68)"
           id="text3625">
          <tspan
             style="font-size:14px;font-variant:normal;font-weight:normal;writing-mode:lr-tb;fill:#000000;fill-opacity:1;fill-rule:nonzero;stroke:none;font-family:Helvetica CY;-inkscape-font-specification:Helvetica"
             x="0 7.7839999 11.676 19.459999"
             y="0"
             sodipodi:role="line"
             id="tspan3627">0.35</tspan>
        </text>
        <text
           transform="matrix(1,0,0,-1,27.32,393.28)"
           id="text3629">
          <tspan
             style="font-size:14px;font-variant:normal;font-weight:normal;writing-mode:lr-tb;fill:#000000;fill-opacity:1;fill-rule:nonzero;stroke:none;font-family:Helvetica CY;-inkscape-font-specification:Helvetica"
             x="0 7.7839999 11.676 19.459999"
             y="0"
             sodipodi:role="line"
             id="tspan3631">0.40</tspan>
        </text>
        <path
           inkscape:connector-curvature="0"
           d="m 57.4,79.92 4.25,0"
           style="fill:none;stroke:#000000;stroke-width:1.05999994;stroke-linecap:butt;stroke-linejoin:round;stroke-miterlimit:10;stroke-opacity:1;stroke-dasharray:none"
           id="path3633" />
        <path
           inkscape:connector-curvature="0"
           d="m 57.4,159.51 4.25,0"
           style="fill:none;stroke:#000000;stroke-width:1.05999994;stroke-linecap:butt;stroke-linejoin:round;stroke-miterlimit:10;stroke-opacity:1;stroke-dasharray:none"
           id="path3635" />
        <path
           inkscape:connector-curvature="0"
           d="m 57.4,239.11 4.25,0"
           style="fill:none;stroke:#000000;stroke-width:1.05999994;stroke-linecap:butt;stroke-linejoin:round;stroke-miterlimit:10;stroke-opacity:1;stroke-dasharray:none"
           id="path3637" />
        <path
           inkscape:connector-curvature="0"
           d="m 57.4,318.71 4.25,0"
           style="fill:none;stroke:#000000;stroke-width:1.05999994;stroke-linecap:butt;stroke-linejoin:round;stroke-miterlimit:10;stroke-opacity:1;stroke-dasharray:none"
           id="path3639" />
        <path
           inkscape:connector-curvature="0"
           d="m 57.4,398.3 4.25,0"
           style="fill:none;stroke:#000000;stroke-width:1.05999994;stroke-linecap:butt;stroke-linejoin:round;stroke-miterlimit:10;stroke-opacity:1;stroke-dasharray:none"
           id="path3641" />
        <path
           inkscape:connector-curvature="0"
           d="m 81.11,40.21 0,4.25"
           style="fill:none;stroke:#000000;stroke-width:1.05999994;stroke-linecap:butt;stroke-linejoin:round;stroke-miterlimit:10;stroke-opacity:1;stroke-dasharray:none"
           id="path3643" />
        <path
           inkscape:connector-curvature="0"
           d="m 179.6,40.21 0,4.25"
           style="fill:none;stroke:#000000;stroke-width:1.05999994;stroke-linecap:butt;stroke-linejoin:round;stroke-miterlimit:10;stroke-opacity:1;stroke-dasharray:none"
           id="path3645" />
        <path
           inkscape:connector-curvature="0"
           d="m 278.09,40.21 0,4.25"
           style="fill:none;stroke:#000000;stroke-width:1.05999994;stroke-linecap:butt;stroke-linejoin:round;stroke-miterlimit:10;stroke-opacity:1;stroke-dasharray:none"
           id="path3647" />
        <path
           inkscape:connector-curvature="0"
           d="m 376.58,40.21 0,4.25"
           style="fill:none;stroke:#000000;stroke-width:1.05999994;stroke-linecap:butt;stroke-linejoin:round;stroke-miterlimit:10;stroke-opacity:1;stroke-dasharray:none"
           id="path3649" />
        <path
           inkscape:connector-curvature="0"
           d="m 475.07,40.21 0,4.25"
           style="fill:none;stroke:#000000;stroke-width:1.05999994;stroke-linecap:butt;stroke-linejoin:round;stroke-miterlimit:10;stroke-opacity:1;stroke-dasharray:none"
           id="path3651" />
        <text
           transform="matrix(1,0,0,-1,57.36,27.32)"
           id="text3653">
          <tspan
             style="font-size:14px;font-variant:normal;font-weight:normal;writing-mode:lr-tb;fill:#000000;fill-opacity:1;fill-rule:nonzero;stroke:none;font-family:Helvetica CY;-inkscape-font-specification:Helvetica"
             x="0"
             y="0"
             id="tspan3655">−</tspan>
        </text>
        <text
           transform="matrix(1,0,0,-1,65.536,27.32)"
           id="text3657">
          <tspan
             style="font-size:14px;font-variant:normal;font-weight:normal;writing-mode:lr-tb;fill:#000000;fill-opacity:1;fill-rule:nonzero;stroke:none;font-family:Helvetica CY;-inkscape-font-specification:Helvetica"
             x="0 7.7839999 15.568 23.743999 31.528"
             y="0"
             sodipodi:role="line"
             id="tspan3659">1e+06</tspan>
        </text>
        <text
           transform="matrix(1,0,0,-1,155.85,27.32)"
           id="text3661">
          <tspan
             style="font-size:14px;font-variant:normal;font-weight:normal;writing-mode:lr-tb;fill:#000000;fill-opacity:1;fill-rule:nonzero;stroke:none;font-family:Helvetica CY;-inkscape-font-specification:Helvetica"
             x="0"
             y="0"
             id="tspan3663">−</tspan>
        </text>
        <text
           transform="matrix(1,0,0,-1,164.026,27.32)"
           id="text3665">
          <tspan
             style="font-size:14px;font-variant:normal;font-weight:normal;writing-mode:lr-tb;fill:#000000;fill-opacity:1;fill-rule:nonzero;stroke:none;font-family:Helvetica CY;-inkscape-font-specification:Helvetica"
             x="0 7.7839999 15.568 23.743999 31.528"
             y="0"
             sodipodi:role="line"
             id="tspan3667">5e+05</tspan>
        </text>
        <text
           transform="matrix(1,0,0,-1,258.43,27.32)"
           id="text3669">
          <tspan
             style="font-size:14px;font-variant:normal;font-weight:normal;writing-mode:lr-tb;fill:#000000;fill-opacity:1;fill-rule:nonzero;stroke:none;font-family:Helvetica CY;-inkscape-font-specification:Helvetica"
             x="0 7.7839999 15.568 23.743999 31.528"
             y="0"
             sodipodi:role="line"
             id="tspan3671">0e+00</tspan>
        </text>
        <text
           transform="matrix(1,0,0,-1,356.93,27.32)"
           id="text3673">
          <tspan
             style="font-size:14px;font-variant:normal;font-weight:normal;writing-mode:lr-tb;fill:#000000;fill-opacity:1;fill-rule:nonzero;stroke:none;font-family:Helvetica CY;-inkscape-font-specification:Helvetica"
             x="0 7.7839999 15.568 23.743999 31.528"
             y="0"
             sodipodi:role="line"
             id="tspan3675">5e+05</tspan>
        </text>
        <text
           transform="matrix(1,0,0,-1,455.42,27.32)"
           id="text3677">
          <tspan
             style="font-size:14px;font-variant:normal;font-weight:normal;writing-mode:lr-tb;fill:#000000;fill-opacity:1;fill-rule:nonzero;stroke:none;font-family:Helvetica CY;-inkscape-font-specification:Helvetica"
             x="0 7.7839999 15.568 23.743999 31.528"
             y="0"
             sodipodi:role="line"
             id="tspan3679">1e+06</tspan>
        </text>
        <text
           transform="matrix(1,0,0,-1,257.62,10.8)"
           id="text3681">
          <tspan
             style="font-size:18px;font-variant:normal;font-weight:normal;writing-mode:lr-tb;fill:#000000;fill-opacity:1;fill-rule:nonzero;stroke:none;font-family:Helvetica CY;-inkscape-font-specification:Helvetica"
             x="0 12.006 22.014 26.01 31.014"
             y="0"
             sodipodi:role="line"
             id="tspan3683">Shift</tspan>
        </text>
        <text
           transform="matrix(0,1,1,0,23.72,219.61)"
           id="text3685">
          <tspan
             style="font-size:18px;font-variant:normal;font-weight:normal;writing-mode:lr-tb;fill:#000000;fill-opacity:1;fill-rule:nonzero;stroke:none;font-family:Helvetica CY;-inkscape-font-specification:Helvetica"
             x="0 14.004 22.554001 32.562 38.826 42.821999 52.830002 62.838001"
             y="0"
             sodipodi:role="line"
             id="tspan3687">Overlaps</tspan>
        </text>
        <text
           transform="scale(1,-1)"
           id="text3689"
           x="243.42996"
           y="-466.2677"
           sodipodi:linespacing="125%"
           style="font-size:12px;line-height:125%">
          <tspan
             style="font-size:38.40000153px;font-style:italic;font-variant:normal;font-weight:normal;font-stretch:normal;text-align:start;line-height:125%;writing-mode:lr-tb;text-anchor:start;fill:#000000;fill-opacity:1;fill-rule:nonzero;stroke:none;font-family:Helvetica CY;-inkscape-font-specification:Helvetica CY Italic"
             sodipodi:role="line"
             id="tspan3691"
             x="243.42996"
             y="-466.2677">AluS</tspan>
        </text>
      </g>
    </g>
    <g
       id="g3934"
       transform="matrix(1.25,0,0,-1.25,-30.000009,1355.9329)" />
    <g
       id="g3936"
       transform="matrix(1.25,0,0,-1.25,-30.000009,1397.9329)">
      <g
         id="g3938"
         clip-path="url(#clipPath3940)">
        <path
           inkscape:connector-curvature="0"
           d="m 61.65,44.46 427.95,0 0,422.14 -427.95,0 0,-422.14 z"
           style="fill:#ffffff;fill-opacity:1;fill-rule:nonzero;stroke:none"
           id="path3944" />
        <path
           inkscape:connector-curvature="0"
           d="m 81.11,93.74 4.92,-30.09 4.93,0 4.92,0 4.92,0 4.93,30.09 4.92,-30.09 4.93,0 4.92,0 4.93,29.66 4.92,14.51 4.93,-44.17 4.92,0 4.93,14.72 4.92,-14.72 4.93,0 4.92,0 4.92,0 4.93,0 4.92,0 4.93,0 4.92,54.97 4.93,0 4.92,27.49 4.93,0 4.92,-28.21 4.93,-27.3 4.92,0 4.92,0 4.93,0 4.92,0 4.93,-0.35 4.92,-13.47 4.93,65.65 4.92,39.39 4.93,-27.42 4.92,-12.96 4.93,-52.5 4.92,96.69 4.93,22.68 4.92,239.11 4.92,-217.32 4.93,-62.73 4.92,-11.81 4.93,-52.01 4.92,-26.6 4.93,26.6 4.92,0.52 4.93,-26.95 4.92,0 4.93,0.18 4.92,0.09 4.92,41.23 4.93,-13.47 4.92,-13.45 4.93,70.11 4.92,-42.07 4.93,-56.09 4.92,0 4.93,0 4.92,0 4.93,29.24 4.92,-29.24 4.92,0 4.93,0 4.92,0 4.93,29.66 4.92,0 4.93,-29.66 4.92,14.94 4.93,-14.94 4.92,15.5 4.93,15.97 4.92,-31.47 4.93,0 4.92,0 4.92,15.86 4.93,0 4.92,-15.86 4.93,0"
           style="fill:none;stroke:#000000;stroke-width:1.05999994;stroke-linecap:butt;stroke-linejoin:round;stroke-miterlimit:1;stroke-opacity:1;stroke-dasharray:none"
           id="path3946" />
        <path
           inkscape:connector-curvature="0"
           d="m 61.65,44.46 427.95,0 0,422.14 -427.95,0 0,-422.14 z"
           style="fill:none;stroke:#7f7f7f;stroke-width:1.05999994;stroke-linecap:round;stroke-linejoin:round;stroke-miterlimit:10;stroke-opacity:1;stroke-dasharray:none"
           id="path3948" />
      </g>
    </g>
    <g
       clip-path="url(#clipPath3954)"
       id="g3952"
       transform="matrix(1.25,0,0,-1.2934444,-30.000009,1399.597)">
      <text
         id="text3958"
         transform="matrix(1,0,0,-1,27.32,58.62)">
        <tspan
           id="tspan3960"
           sodipodi:role="line"
           y="0"
           x="0 7.7839999 11.676 19.459999"
           style="font-size:14px;font-variant:normal;font-weight:normal;writing-mode:lr-tb;fill:#000000;fill-opacity:1;fill-rule:nonzero;stroke:none;font-family:Helvetica CY;-inkscape-font-specification:Helvetica">0.00</tspan>
      </text>
      <text
         id="text3962"
         transform="matrix(1,0,0,-1,27.32,161.69)">
        <tspan
           id="tspan3964"
           sodipodi:role="line"
           y="0"
           x="0 7.7839999 11.676 19.459999"
           style="font-size:14px;font-variant:normal;font-weight:normal;writing-mode:lr-tb;fill:#000000;fill-opacity:1;fill-rule:nonzero;stroke:none;font-family:Helvetica CY;-inkscape-font-specification:Helvetica">0.05</tspan>
      </text>
      <text
         id="text3966"
         transform="matrix(1,0,0,-1,27.32,264.76)">
        <tspan
           id="tspan3968"
           sodipodi:role="line"
           y="0"
           x="0 7.7839999 11.676 19.459999"
           style="font-size:14px;font-variant:normal;font-weight:normal;writing-mode:lr-tb;fill:#000000;fill-opacity:1;fill-rule:nonzero;stroke:none;font-family:Helvetica CY;-inkscape-font-specification:Helvetica">0.10</tspan>
      </text>
      <text
         id="text3970"
         transform="matrix(1,0,0,-1,27.32,367.83)">
        <tspan
           id="tspan3972"
           sodipodi:role="line"
           y="0"
           x="0 7.7839999 11.676 19.459999"
           style="font-size:14px;font-variant:normal;font-weight:normal;writing-mode:lr-tb;fill:#000000;fill-opacity:1;fill-rule:nonzero;stroke:none;font-family:Helvetica CY;-inkscape-font-specification:Helvetica">0.15</tspan>
      </text>
      <path
         id="path3974"
         style="fill:none;stroke:#000000;stroke-width:1.05999994;stroke-linecap:butt;stroke-linejoin:round;stroke-miterlimit:10;stroke-opacity:1;stroke-dasharray:none"
         d="m 57.4,63.65 4.25,0"
         inkscape:connector-curvature="0" />
      <path
         id="path3976"
         style="fill:none;stroke:#000000;stroke-width:1.05999994;stroke-linecap:butt;stroke-linejoin:round;stroke-miterlimit:10;stroke-opacity:1;stroke-dasharray:none"
         d="m 57.4,166.72 4.25,0"
         inkscape:connector-curvature="0" />
      <path
         id="path3978"
         style="fill:none;stroke:#000000;stroke-width:1.05999994;stroke-linecap:butt;stroke-linejoin:round;stroke-miterlimit:10;stroke-opacity:1;stroke-dasharray:none"
         d="m 57.4,269.79 4.25,0"
         inkscape:connector-curvature="0" />
      <path
         id="path3980"
         style="fill:none;stroke:#000000;stroke-width:1.05999994;stroke-linecap:butt;stroke-linejoin:round;stroke-miterlimit:10;stroke-opacity:1;stroke-dasharray:none"
         d="m 57.4,372.86 4.25,0"
         inkscape:connector-curvature="0" />
      <path
         id="path3982"
         style="fill:none;stroke:#000000;stroke-width:1.05999994;stroke-linecap:butt;stroke-linejoin:round;stroke-miterlimit:10;stroke-opacity:1;stroke-dasharray:none"
         d="m 81.11,40.21 0,4.25"
         inkscape:connector-curvature="0" />
      <path
         id="path3984"
         style="fill:none;stroke:#000000;stroke-width:1.05999994;stroke-linecap:butt;stroke-linejoin:round;stroke-miterlimit:10;stroke-opacity:1;stroke-dasharray:none"
         d="m 179.6,40.21 0,4.25"
         inkscape:connector-curvature="0" />
      <path
         id="path3986"
         style="fill:none;stroke:#000000;stroke-width:1.05999994;stroke-linecap:butt;stroke-linejoin:round;stroke-miterlimit:10;stroke-opacity:1;stroke-dasharray:none"
         d="m 278.09,40.21 0,4.25"
         inkscape:connector-curvature="0" />
      <path
         id="path3988"
         style="fill:none;stroke:#000000;stroke-width:1.05999994;stroke-linecap:butt;stroke-linejoin:round;stroke-miterlimit:10;stroke-opacity:1;stroke-dasharray:none"
         d="m 376.58,40.21 0,4.25"
         inkscape:connector-curvature="0" />
      <path
         id="path3990"
         style="fill:none;stroke:#000000;stroke-width:1.05999994;stroke-linecap:butt;stroke-linejoin:round;stroke-miterlimit:10;stroke-opacity:1;stroke-dasharray:none"
         d="m 475.07,40.21 0,4.25"
         inkscape:connector-curvature="0" />
      <text
         id="text3992"
         transform="matrix(1,0,0,-1,57.36,27.32)">
        <tspan
           id="tspan3994"
           y="0"
           x="0"
           style="font-size:14px;font-variant:normal;font-weight:normal;writing-mode:lr-tb;fill:#000000;fill-opacity:1;fill-rule:nonzero;stroke:none;font-family:Helvetica CY;-inkscape-font-specification:Helvetica">−</tspan>
      </text>
      <text
         id="text3996"
         transform="matrix(1,0,0,-1,65.536,27.32)">
        <tspan
           id="tspan3998"
           sodipodi:role="line"
           y="0"
           x="0 7.7839999 15.568 23.743999 31.528"
           style="font-size:14px;font-variant:normal;font-weight:normal;writing-mode:lr-tb;fill:#000000;fill-opacity:1;fill-rule:nonzero;stroke:none;font-family:Helvetica CY;-inkscape-font-specification:Helvetica">1e+06</tspan>
      </text>
      <text
         id="text4000"
         transform="matrix(1,0,0,-1,155.85,27.32)">
        <tspan
           id="tspan4002"
           y="0"
           x="0"
           style="font-size:14px;font-variant:normal;font-weight:normal;writing-mode:lr-tb;fill:#000000;fill-opacity:1;fill-rule:nonzero;stroke:none;font-family:Helvetica CY;-inkscape-font-specification:Helvetica">−</tspan>
      </text>
      <text
         id="text4004"
         transform="matrix(1,0,0,-1,164.026,27.32)">
        <tspan
           id="tspan4006"
           sodipodi:role="line"
           y="0"
           x="0 7.7839999 15.568 23.743999 31.528"
           style="font-size:14px;font-variant:normal;font-weight:normal;writing-mode:lr-tb;fill:#000000;fill-opacity:1;fill-rule:nonzero;stroke:none;font-family:Helvetica CY;-inkscape-font-specification:Helvetica">5e+05</tspan>
      </text>
      <text
         id="text4008"
         transform="matrix(1,0,0,-1,258.43,27.32)">
        <tspan
           id="tspan4010"
           sodipodi:role="line"
           y="0"
           x="0 7.7839999 15.568 23.743999 31.528"
           style="font-size:14px;font-variant:normal;font-weight:normal;writing-mode:lr-tb;fill:#000000;fill-opacity:1;fill-rule:nonzero;stroke:none;font-family:Helvetica CY;-inkscape-font-specification:Helvetica">0e+00</tspan>
      </text>
      <text
         id="text4012"
         transform="matrix(1,0,0,-1,356.93,27.32)">
        <tspan
           id="tspan4014"
           sodipodi:role="line"
           y="0"
           x="0 7.7839999 15.568 23.743999 31.528"
           style="font-size:14px;font-variant:normal;font-weight:normal;writing-mode:lr-tb;fill:#000000;fill-opacity:1;fill-rule:nonzero;stroke:none;font-family:Helvetica CY;-inkscape-font-specification:Helvetica">5e+05</tspan>
      </text>
      <text
         id="text4016"
         transform="matrix(1,0,0,-1,455.42,27.32)">
        <tspan
           id="tspan4018"
           sodipodi:role="line"
           y="0"
           x="0 7.7839999 15.568 23.743999 31.528"
           style="font-size:14px;font-variant:normal;font-weight:normal;writing-mode:lr-tb;fill:#000000;fill-opacity:1;fill-rule:nonzero;stroke:none;font-family:Helvetica CY;-inkscape-font-specification:Helvetica">1e+06</tspan>
      </text>
      <text
         id="text4020"
         transform="matrix(1,0,0,-1,257.62,10.8)">
        <tspan
           id="tspan4022"
           sodipodi:role="line"
           y="0"
           x="0 12.006 22.014 26.01 31.014"
           style="font-size:18px;font-variant:normal;font-weight:normal;writing-mode:lr-tb;fill:#000000;fill-opacity:1;fill-rule:nonzero;stroke:none;font-family:Helvetica CY;-inkscape-font-specification:Helvetica">Shift</tspan>
      </text>
      <text
         id="text4024"
         transform="matrix(0,1,1,0,23.72,219.61)">
        <tspan
           id="tspan4026"
           sodipodi:role="line"
           y="0"
           x="0 14.004 22.554001 32.562 38.826 42.821999 52.830002 62.838001"
           style="font-size:18px;font-variant:normal;font-weight:normal;writing-mode:lr-tb;fill:#000000;fill-opacity:1;fill-rule:nonzero;stroke:none;font-family:Helvetica CY;-inkscape-font-specification:Helvetica">Overlaps</tspan>
      </text>
      <text
         style="line-height:125%"
         sodipodi:linespacing="125%"
         y="-470.20001"
         x="114.15997"
         id="text4028"
         transform="scale(1,-1)">
        <tspan
           y="-470.20001"
           x="114.15997"
           id="tspan4030"
           sodipodi:role="line"
           style="font-size:38.40000153px;font-style:normal;font-variant:normal;font-weight:normal;font-stretch:normal;text-align:start;line-height:125%;writing-mode:lr-tb;text-anchor:start;fill:#000000;fill-opacity:1;fill-rule:nonzero;stroke:none;font-family:Helvetica CY;-inkscape-font-specification:Helvetica CY">Segmental Duplications</tspan>
      </text>
    </g>
    <g
       id="g4111"
       transform="matrix(1.25,0,0,-1.25,-674.34662,1397.1067)">
      <g
         id="g4113"
         clip-path="url(#clipPath4115)">
        <path
           inkscape:connector-curvature="0"
           d="m 53.87,44.46 435.73,0 0,422.14 -435.73,0 0,-422.14 z"
           style="fill:#ffffff;fill-opacity:1;fill-rule:nonzero;stroke:none"
           id="path4119" />
        <g
           id="g4121"
           transform="translate(73.68,328.27)">
          <path
             inkscape:connector-curvature="0"
             d="m 0,0 5.01,-25.22 5.01,18.91 5.02,-25.22 5.01,18.92 5.02,-50.44 5.01,25.22 5.02,-10.94 5.01,-6.21 5.01,6.21 5.02,28.59 5.01,6.17 5.02,-24.68 5.01,12.34 5.01,-23.62 5.02,47.66 5.01,83.2 5.02,-67.22 5.01,23.35 5.02,-29.18 5.01,64.12 5.01,17.28 5.02,-34.56 5.01,5.76 5.02,40.31 5.01,-51.6 5.01,-14 5.02,56.46 5.01,-45.17 5.02,5.65 5.01,-16.94 5.02,61.7 5.01,-66.41 5.01,0 5.02,-33.01 5.01,17.16 5.02,65.19 5.01,-42.72 5.01,-116.53 5.02,-53.86 5.01,-131.29 5.02,129.62 5.01,89.83 5.01,31.59 5.02,54.7 5.01,78.03 5.02,-27.87 5.01,-95.65 5.02,16.94 5.01,50.81 5.01,-17.2 5.02,60.33 5.01,-46.07 5.02,-8.73 5.01,23.31 5.01,-47.01 5.02,-35.26 5.01,17.63 5.02,5.19 5.01,-56.58 5.02,0 5.01,18.38 5.01,42.22 5.02,18.65 5.01,0 5.02,37.28 5.01,-24.85 5.01,-18.65 5.02,-65.97 5.01,18.78 5.02,39.78 5.01,18.86 5.02,-0.35 5.01,9.79 5.01,53.16 5.02,-33.22 5.01,39.87 5.02,-59.81 5.01,-3.45 5.01,-40.18"
             style="fill:none;stroke:#000000;stroke-width:1.05999994;stroke-linecap:butt;stroke-linejoin:round;stroke-miterlimit:1;stroke-opacity:1;stroke-dasharray:none"
             id="path4123" />
        </g>
        <path
           inkscape:connector-curvature="0"
           d="m 53.87,44.46 435.73,0 0,422.14 -435.73,0 0,-422.14 z"
           style="fill:none;stroke:#7f7f7f;stroke-width:1.05999994;stroke-linecap:round;stroke-linejoin:round;stroke-miterlimit:10;stroke-opacity:1;stroke-dasharray:none"
           id="path4125" />
      </g>
    </g>
    <g
       clip-path="url(#clipPath4131)"
       id="g4129"
       transform="matrix(1.25,0,0,-1.3688772,-674.34662,1402.5839)">
      <text
         id="text4135"
         transform="matrix(1,0,0,-1,27.32,43.92)">
        <tspan
           id="tspan4137"
           sodipodi:role="line"
           y="0"
           x="0 7.7839999 11.676"
           style="font-size:14px;font-variant:normal;font-weight:normal;writing-mode:lr-tb;fill:#000000;fill-opacity:1;fill-rule:nonzero;stroke:none;font-family:Helvetica CY;-inkscape-font-specification:Helvetica">0.1</tspan>
        <tspan
           id="tspan4139"
           sodipodi:role="line"
           y="-86.379997"
           x="0 7.7839999 11.676"
           style="font-size:14px;font-variant:normal;font-weight:normal;writing-mode:lr-tb;fill:#000000;fill-opacity:1;fill-rule:nonzero;stroke:none;font-family:Helvetica CY;-inkscape-font-specification:Helvetica">0.2</tspan>
        <tspan
           id="tspan4141"
           sodipodi:role="line"
           y="-172.75999"
           x="0 7.7839999 11.676"
           style="font-size:14px;font-variant:normal;font-weight:normal;writing-mode:lr-tb;fill:#000000;fill-opacity:1;fill-rule:nonzero;stroke:none;font-family:Helvetica CY;-inkscape-font-specification:Helvetica">0.3</tspan>
        <tspan
           id="tspan4143"
           sodipodi:role="line"
           y="-259.15399"
           x="0 7.7839999 11.676"
           style="font-size:14px;font-variant:normal;font-weight:normal;writing-mode:lr-tb;fill:#000000;fill-opacity:1;fill-rule:nonzero;stroke:none;font-family:Helvetica CY;-inkscape-font-specification:Helvetica">0.4</tspan>
        <tspan
           id="tspan4145"
           sodipodi:role="line"
           y="-345.534"
           x="0 7.7839999 11.676"
           style="font-size:14px;font-variant:normal;font-weight:normal;writing-mode:lr-tb;fill:#000000;fill-opacity:1;fill-rule:nonzero;stroke:none;font-family:Helvetica CY;-inkscape-font-specification:Helvetica">0.5</tspan>
      </text>
      <g
         transform="translate(49.62,48.95)"
         id="g4147">
        <path
           id="path4149"
           style="fill:none;stroke:#000000;stroke-width:1.05999994;stroke-linecap:butt;stroke-linejoin:round;stroke-miterlimit:10;stroke-opacity:1;stroke-dasharray:none"
           d="M 0,0 4.25,0"
           inkscape:connector-curvature="0" />
      </g>
      <g
         transform="translate(49.62,135.33)"
         id="g4151">
        <path
           id="path4153"
           style="fill:none;stroke:#000000;stroke-width:1.05999994;stroke-linecap:butt;stroke-linejoin:round;stroke-miterlimit:10;stroke-opacity:1;stroke-dasharray:none"
           d="M 0,0 4.25,0"
           inkscape:connector-curvature="0" />
      </g>
      <g
         transform="translate(49.62,221.71)"
         id="g4155">
        <path
           id="path4157"
           style="fill:none;stroke:#000000;stroke-width:1.05999994;stroke-linecap:butt;stroke-linejoin:round;stroke-miterlimit:10;stroke-opacity:1;stroke-dasharray:none"
           d="M 0,0 4.25,0"
           inkscape:connector-curvature="0" />
      </g>
      <g
         transform="translate(49.62,308.09)"
         id="g4159">
        <path
           id="path4161"
           style="fill:none;stroke:#000000;stroke-width:1.05999994;stroke-linecap:butt;stroke-linejoin:round;stroke-miterlimit:10;stroke-opacity:1;stroke-dasharray:none"
           d="M 0,0 4.25,0"
           inkscape:connector-curvature="0" />
      </g>
      <g
         transform="translate(49.62,394.47)"
         id="g4163">
        <path
           id="path4165"
           style="fill:none;stroke:#000000;stroke-width:1.05999994;stroke-linecap:butt;stroke-linejoin:round;stroke-miterlimit:10;stroke-opacity:1;stroke-dasharray:none"
           d="M 0,0 4.25,0"
           inkscape:connector-curvature="0" />
      </g>
      <g
         transform="translate(73.68,40.21)"
         id="g4167">
        <path
           id="path4169"
           style="fill:none;stroke:#000000;stroke-width:1.05999994;stroke-linecap:butt;stroke-linejoin:round;stroke-miterlimit:10;stroke-opacity:1;stroke-dasharray:none"
           d="M 0,0 0,4.25"
           inkscape:connector-curvature="0" />
      </g>
      <g
         transform="translate(173.96,40.21)"
         id="g4171">
        <path
           id="path4173"
           style="fill:none;stroke:#000000;stroke-width:1.05999994;stroke-linecap:butt;stroke-linejoin:round;stroke-miterlimit:10;stroke-opacity:1;stroke-dasharray:none"
           d="M 0,0 0,4.25"
           inkscape:connector-curvature="0" />
      </g>
      <g
         transform="translate(274.24,40.21)"
         id="g4175">
        <path
           id="path4177"
           style="fill:none;stroke:#000000;stroke-width:1.05999994;stroke-linecap:butt;stroke-linejoin:round;stroke-miterlimit:10;stroke-opacity:1;stroke-dasharray:none"
           d="M 0,0 0,4.25"
           inkscape:connector-curvature="0" />
      </g>
      <g
         transform="translate(374.53,40.21)"
         id="g4179">
        <path
           id="path4181"
           style="fill:none;stroke:#000000;stroke-width:1.05999994;stroke-linecap:butt;stroke-linejoin:round;stroke-miterlimit:10;stroke-opacity:1;stroke-dasharray:none"
           d="M 0,0 0,4.25"
           inkscape:connector-curvature="0" />
      </g>
      <g
         transform="translate(474.81,40.21)"
         id="g4183">
        <path
           id="path4185"
           style="fill:none;stroke:#000000;stroke-width:1.05999994;stroke-linecap:butt;stroke-linejoin:round;stroke-miterlimit:10;stroke-opacity:1;stroke-dasharray:none"
           d="M 0,0 0,4.25"
           inkscape:connector-curvature="0" />
      </g>
      <text
         id="text4187"
         transform="matrix(1,0,0,-1,49.93,27.32)">
        <tspan
           id="tspan4189"
           y="0"
           x="0"
           style="font-size:14px;font-variant:normal;font-weight:normal;writing-mode:lr-tb;fill:#000000;fill-opacity:1;fill-rule:nonzero;stroke:none;font-family:Helvetica CY;-inkscape-font-specification:Helvetica">−</tspan>
      </text>
      <text
         id="text4191"
         transform="matrix(1,0,0,-1,58.106,27.32)">
        <tspan
           id="tspan4193"
           sodipodi:role="line"
           y="0"
           x="0 7.7839999 15.568 23.743999 31.528"
           style="font-size:14px;font-variant:normal;font-weight:normal;writing-mode:lr-tb;fill:#000000;fill-opacity:1;fill-rule:nonzero;stroke:none;font-family:Helvetica CY;-inkscape-font-specification:Helvetica">1e+06</tspan>
      </text>
      <text
         id="text4195"
         transform="matrix(1,0,0,-1,150.226,27.32)">
        <tspan
           id="tspan4197"
           y="0"
           x="0"
           style="font-size:14px;font-variant:normal;font-weight:normal;writing-mode:lr-tb;fill:#000000;fill-opacity:1;fill-rule:nonzero;stroke:none;font-family:Helvetica CY;-inkscape-font-specification:Helvetica">−</tspan>
      </text>
      <text
         id="text4199"
         transform="matrix(1,0,0,-1,158.402,27.32)">
        <tspan
           id="tspan4201"
           sodipodi:role="line"
           y="0"
           x="0 7.7839999 15.568 23.743999 31.528 96.194 103.978 111.762 119.938 127.722 196.47459 204.25861 212.0426 220.2186 228.00259 296.75381 304.53781 312.32181 320.4978 328.2818"
           style="font-size:14px;font-variant:normal;font-weight:normal;writing-mode:lr-tb;fill:#000000;fill-opacity:1;fill-rule:nonzero;stroke:none;font-family:Helvetica CY;-inkscape-font-specification:Helvetica">5e+050e+005e+051e+06</tspan>
      </text>
      <text
         y="-6.6273603"
         x="253.73"
         id="text4203"
         transform="scale(1,-1)">
        <tspan
           id="tspan4205"
           sodipodi:role="line"
           y="-6.6273603"
           x="253.73 265.73599 275.74399 279.73999 284.74399"
           style="font-size:18px;font-variant:normal;font-weight:normal;writing-mode:lr-tb;fill:#000000;fill-opacity:1;fill-rule:nonzero;stroke:none;font-family:Helvetica CY;-inkscape-font-specification:Helvetica">Shift</tspan>
      </text>
      <text
         id="text4207"
         transform="matrix(0,1,1,0,23.72,219.61)">
        <tspan
           id="tspan4209"
           sodipodi:role="line"
           y="0"
           x="0 14.004 22.554001 32.562 38.826 42.821999 52.830002 62.838001"
           style="font-size:18px;font-variant:normal;font-weight:normal;writing-mode:lr-tb;fill:#000000;fill-opacity:1;fill-rule:nonzero;stroke:none;font-family:Helvetica CY;-inkscape-font-specification:Helvetica">Overlaps</tspan>
      </text>
    </g>
    <text
       id="text4211"
       x="-399.28912"
       y="791.00922"
       style="font-size:15px;line-height:125%"
       sodipodi:linespacing="125%">
      <tspan
         style="font-size:48px;font-style:normal;font-variant:normal;font-weight:normal;font-stretch:normal;text-align:start;line-height:125%;writing-mode:lr-tb;text-anchor:start;fill:#000000;fill-opacity:1;fill-rule:nonzero;stroke:none;font-family:Helvetica CY;-inkscape-font-specification:Helvetica CY"
         sodipodi:role="line"
         id="tspan4213"
         x="-399.28912"
         y="791.00922">Genes</tspan>
    </text>
  </g>
</svg>
